<svg width="920" height="220" viewBox="0 0 920 220" fill="none" xmlns="http://www.w3.org/2000/svg" role="img" aria-labelledby="title desc">
  <title id="title">Kinger Matrimonials wordmark</title>
  <desc id="desc">Gold KM monogram followed by the Kinger Matrimonials wordmark on a transparent background.</desc>
  <defs>
    <linearGradient id="goldFill" x1="40" y1="18" x2="180" y2="186" gradientUnits="userSpaceOnUse">
      <stop stop-color="#E7CB81"/>
      <stop offset="0.48" stop-color="#CFA74F"/>
      <stop offset="1" stop-color="#B8892D"/>
    </linearGradient>
  </defs>

  <g transform="translate(8 10)">
    <path d="M54 153L74 35H102L94 67L137 35H165L116 72L155 153H128L96 85L84 153H54Z" fill="url(#goldFill)"/>
    <path d="M30 153L62 35H89L73 98L113 64H141L130 82L90 110L78 153H30Z" fill="url(#goldFill)" fill-opacity="0.92"/>
    <path d="M76 143L104 41H129L115 95L158 143H133L106 118L99 143H76Z" fill="url(#goldFill)" fill-opacity="0.84"/>
  </g>

  <g transform="translate(220 34)">
    <text x="0" y="58" fill="#FFF7F1" font-family="'Cormorant Garamond', Georgia, serif" font-size="72" font-style="italic" font-weight="700" letter-spacing="1">
      Kinger
    </text>
    <text x="0" y="124" fill="#E1BA62" font-family="'Cormorant Garamond', Georgia, serif" font-size="72" font-style="italic" font-weight="700" letter-spacing="1">
      Matrimonials
    </text>
  </g>
</svg>
